<svg width="1200" height="630" viewBox="0 0 1200 630" fill="none" xmlns="http://www.w3.org/2000/svg">
  <!-- Fond clair -->
  <rect width="1200" height="630" fill="#F8F9F5"/>
  
  <!-- Formes décoratives -->
  <ellipse cx="200" cy="100" rx="300" ry="200" fill="#B2C2A2" fill-opacity="0.1"/>
  <ellipse cx="1000" cy="530" rx="350" ry="250" fill="#849673" fill-opacity="0.08"/>
  
  <!-- Logo M (basé sur icon-logo.svg) -->
  <g transform="translate(500, 170) scale(1.8)">
    <path d="M0,45.92s0,0,0-.01c.38-3.95,3.74-12.74,5.61-16.36C21.09-.52,59.65-9.35,86.86,11.03c2.37,1.77,10.16,11.24,11.53,11.23.03,0,.05-.02.07-.04,4.8-5.27,10.75-11.12,16.91-14.79,32.48-19.37,78.48,2.29,81.5,40.45,1.11,14.03.86,29.88,1,43.94.17,15.92-1.42,31.61-.05,47.38,0,.06-.04.1-.09.1h-21.78c-.05,0-.1-.04-.1-.1V54.05c0-12.43-9.35-26.63-21.01-30.96-14.85-5.51-31.59.47-39.75,14.03-1.61,2.67-5.19,10.01-5.19,12.79v89.3c0,.05-.04.1-.1.1h-21.79c-.05,0-.1-.04-.1-.1V55.91c0-3.46-4.25-16.72-6.19-19.82-12.77-20.45-45.9-19.64-56.6,3-.88,1.86-4.16,11.37-4.16,12.82v87.3c0,.05-.04.1-.1.1H.1c-.05,0-.1-.04-.1-.1V45.92Z" fill="#B2C2A2"/>
  </g>
  
  <!-- Texte MELIOZ -->
  <text x="600" y="470" font-family="Space Grotesk, sans-serif" font-size="72" font-weight="700" fill="#2F362C" text-anchor="middle">MELIOZ</text>
  
  <!-- Sous-titre -->
  <text x="600" y="530" font-family="DM Sans, sans-serif" font-size="28" font-weight="500" fill="#2F362C" fill-opacity="0.7" text-anchor="middle">Agence Web et Produit à Paris</text>
</svg>
